<svg xmlns="http://www.w3.org/2000/svg" width="620" height="220" viewBox="0 0 620 220" role="img" aria-label="Güvenli Öde">
  <rect x="10" y="10" width="600" height="200" rx="24" fill="#ffffff" stroke="#cfd3d8" stroke-width="4"/>
  <g transform="translate(86 64)">
    <path d="M34 20c-21 0-38 16-38 36 0 19 17 36 38 36 15 0 28-6 36-16l-13-10c-5 6-13 10-22 10-12 0-22-9-22-20 0-12 10-20 22-20 8 0 15 3 20 8l13-11c-9-9-21-13-34-13z" fill="#15b6c6"/>
    <rect x="90" y="26" width="140" height="56" rx="28" fill="#15b6c6"/>
    <text x="100" y="66" font-family="Arial, Helvetica, sans-serif" font-size="32" font-weight="700" fill="#fff">TV</text>
    <text x="250" y="66" font-family="Arial, Helvetica, sans-serif" font-size="52" font-weight="700" fill="#15b6c6" letter-spacing="1">GÜVENLİ ÖDE</text>
  </g>
</svg>
